<svg id="Layer_1" data-name="Layer 1" xmlns="http://www.w3.org/2000/svg" viewBox="0 0 400.54 91.2"><defs><style>.cls-1{fill:#194276;}.cls-2{fill:#fff;}.cls-3{fill:#2f4256;}</style></defs><circle class="cls-1" cx="50.24" cy="45.6" r="34.48"/><path class="cls-2" d="M47.75,57.11a15.7,15.7,0,0,1-11.63,5C27,62.09,20,54.81,20,45.6s7-16.49,16.11-16.49a15.92,15.92,0,0,1,11.63,5V31.73a2.5,2.5,0,0,1,2.49-2.49,2.46,2.46,0,0,1,2.49,2.49V59.41A2.47,2.47,0,0,1,50.24,62a2.51,2.51,0,0,1-2.49-2.55Zm0-11v-1c-.24-6.47-5.16-11.38-11.32-11.38-6.34,0-11.38,5.16-11.38,11.88s5,11.88,11.38,11.88C42.59,57.48,47.51,52.57,47.75,46.1Z"/><path class="cls-2" d="M49.65,45.6A16.24,16.24,0,0,1,66.08,29.11a15.81,15.81,0,0,1,12.13,5.35A2.94,2.94,0,0,1,79,36.21a2.3,2.3,0,0,1-2.48,2.3,3.15,3.15,0,0,1-2.12-1.06,10.83,10.83,0,0,0-8.27-3.73A11.54,11.54,0,0,0,54.69,45.6,11.59,11.59,0,0,0,66.08,57.48a10.93,10.93,0,0,0,8.27-3.73,3.09,3.09,0,0,1,2.12-1.12A2.35,2.35,0,0,1,79,55a2.89,2.89,0,0,1-.74,1.68,15.76,15.76,0,0,1-12.13,5.42A16.24,16.24,0,0,1,49.65,45.6Z"/><path class="cls-2" d="M47.75,34.09V31.73a2.5,2.5,0,0,1,2.49-2.49,2.46,2.46,0,0,1,2.49,2.49V59.41A2.47,2.47,0,0,1,50.24,62a2.51,2.51,0,0,1-2.49-2.55Zm0,12"/><path class="cls-3" d="M120.38,56.51a9.54,9.54,0,0,1-7.06,3,10,10,0,0,1,0-20,9.66,9.66,0,0,1,7.06,3V41.1a1.52,1.52,0,0,1,1.51-1.51,1.49,1.49,0,0,1,1.51,1.51V57.91a1.5,1.5,0,0,1-1.51,1.54,1.52,1.52,0,0,1-1.51-1.54Zm0-6.69v-.6a6.91,6.91,0,1,0-6.87,7.52A7,7,0,0,0,120.38,49.82Z"/><path class="cls-3" d="M128.54,41.1a1.49,1.49,0,0,1,1.51-1.51,1.52,1.52,0,0,1,1.51,1.51v9.78c0,3.85,2.34,5.86,5.25,5.86s5.28-2,5.28-5.86V41.1a1.5,1.5,0,0,1,1.51-1.51,1.52,1.52,0,0,1,1.52,1.51v9.67c0,5.47-3.67,8.76-8.31,8.76s-8.27-3.29-8.27-8.76Z"/><path class="cls-3" d="M166.19,56.51a9.54,9.54,0,0,1-7.06,3,9.76,9.76,0,0,1-9.78-10,9.76,9.76,0,0,1,9.78-10,9.66,9.66,0,0,1,7.06,3V33.92a1.52,1.52,0,0,1,1.51-1.51,1.49,1.49,0,0,1,1.51,1.51v24a1.5,1.5,0,0,1-1.51,1.54,1.52,1.52,0,0,1-1.51-1.54Zm0-6.69v-.6a6.91,6.91,0,1,0-6.87,7.52A7,7,0,0,0,166.19,49.82Z"/><path class="cls-3" d="M174.35,47.67c0-4.87,3.09-8.16,7.78-8.16a1.4,1.4,0,0,1,1.39,1.4,1.42,1.42,0,0,1-1.39,1.4c-2.8,0-4.76,1.85-4.76,5.36V57.91a1.52,1.52,0,0,1-1.51,1.54,1.5,1.5,0,0,1-1.51-1.54Z"/><path class="cls-3" d="M185.15,49.52a9.85,9.85,0,0,1,10-10,9.65,9.65,0,0,1,6.53,2.42,1.52,1.52,0,0,1,.08,2.3L195,52.28a1.43,1.43,0,0,1-2.5-.87,1.28,1.28,0,0,1,.34-.94l5.89-6.95a5.75,5.75,0,0,0-3.62-1.21,7.22,7.22,0,0,0,0,14.43,6.59,6.59,0,0,0,5-2.27,1.9,1.9,0,0,1,1.29-.68,1.43,1.43,0,0,1,1.51,1.43,1.71,1.71,0,0,1-.46,1,9.54,9.54,0,0,1-7.36,3.29A9.87,9.87,0,0,1,185.15,49.52Z"/><path class="cls-3" d="M207.47,57.75V41.1A1.49,1.49,0,0,1,209,39.59a1.52,1.52,0,0,1,1.51,1.51v13l11.74-14a1.35,1.35,0,0,1,1.06-.53,1.4,1.4,0,0,1,1.44,1.4,1.44,1.44,0,0,1-.34.9L204.07,66.1a1.32,1.32,0,0,1-1.06.53,1.39,1.39,0,0,1-1.09-2.3Z"/><path class="cls-3" d="M236.25,49.52a9.85,9.85,0,0,1,10-10,9.59,9.59,0,0,1,7.36,3.25,1.72,1.72,0,0,1,.45,1.06,1.4,1.4,0,0,1-1.51,1.4,1.92,1.92,0,0,1-1.28-.65,6.58,6.58,0,0,0-5-2.26,7.22,7.22,0,0,0,0,14.43,6.65,6.65,0,0,0,5-2.27,1.89,1.89,0,0,1,1.28-.68A1.43,1.43,0,0,1,254,55.22a1.69,1.69,0,0,1-.45,1,9.55,9.55,0,0,1-7.36,3.29A9.85,9.85,0,0,1,236.25,49.52Z"/><path class="cls-3" d="M274.05,56.51a9.54,9.54,0,0,1-7.06,3,10,10,0,0,1,0-20,9.66,9.66,0,0,1,7.06,3V41.1a1.52,1.52,0,0,1,1.51-1.51,1.49,1.49,0,0,1,1.51,1.51V57.91a1.5,1.5,0,0,1-1.51,1.54,1.52,1.52,0,0,1-1.51-1.54Zm0-6.69v-.6a6.89,6.89,0,1,0-13.78.3,6.89,6.89,0,1,0,13.78.3Z"/><path class="cls-3" d="M282.21,46.84c0-4.72,3.1-7.33,7-7.33a5.94,5.94,0,0,1,5.47,2.76,6.06,6.06,0,0,1,5.44-2.76c3.89,0,7,2.61,7,7.33V57.91a1.52,1.52,0,0,1-1.51,1.54A1.5,1.5,0,0,1,304,57.91V46.8c0-3-1.74-4.49-4-4.49s-3.93,1.51-3.93,4.49V57.91a1.52,1.52,0,0,1-1.51,1.54,1.5,1.5,0,0,1-1.51-1.54V46.8c0-3-1.73-4.49-4-4.49s-3.93,1.51-3.93,4.49V57.91a1.52,1.52,0,0,1-1.51,1.54,1.5,1.5,0,0,1-1.51-1.54Z"/><path class="cls-3" d="M311.29,49.52a9.85,9.85,0,0,1,10-10,9.65,9.65,0,0,1,6.53,2.42,1.59,1.59,0,0,1,.57,1.17,1.55,1.55,0,0,1-.49,1.13l-6.72,8.05a1.43,1.43,0,0,1-2.5-.87,1.28,1.28,0,0,1,.34-.94l5.89-6.95a5.73,5.73,0,0,0-3.62-1.21,7.22,7.22,0,0,0,0,14.43,6.59,6.59,0,0,0,5-2.27,1.9,1.9,0,0,1,1.29-.68,1.43,1.43,0,0,1,1.51,1.43,1.71,1.71,0,0,1-.46,1,9.54,9.54,0,0,1-7.36,3.29A9.87,9.87,0,0,1,311.29,49.52Z"/><path class="cls-3" d="M333.23,47.67c0-4.87,3.1-8.16,7.78-8.16a1.4,1.4,0,0,1,1.4,1.4,1.42,1.42,0,0,1-1.4,1.4c-2.79,0-4.76,1.85-4.76,5.36V57.91a1.52,1.52,0,0,1-1.51,1.54,1.5,1.5,0,0,1-1.51-1.54Z"/><path class="cls-3" d="M344,49.52a10,10,0,1,1,10,10A9.86,9.86,0,0,1,344,49.52Zm16.85,0A6.9,6.9,0,1,0,354,56.74,7,7,0,0,0,360.88,49.52Z"/><path class="cls-3" d="M368.2,48.24c0-5.48,3.67-8.73,8.27-8.73s8.31,3.25,8.31,8.73v9.67a1.52,1.52,0,0,1-1.51,1.54,1.5,1.5,0,0,1-1.51-1.54V48.16c0-3.85-2.34-5.85-5.29-5.85s-5.25,2-5.25,5.85v9.75a1.52,1.52,0,0,1-1.51,1.54,1.5,1.5,0,0,1-1.51-1.54Z"/></svg>