<?xml version="1.0" encoding="utf-8"?>
<!-- Generator: Adobe Illustrator 26.2.1, SVG Export Plug-In . SVG Version: 6.00 Build 0)  -->
<svg version="1.1" id="Layer_1" xmlns="http://www.w3.org/2000/svg" xmlns:xlink="http://www.w3.org/1999/xlink" x="0px" y="0px"
	 viewBox="0 0 400.5 91.2" style="enable-background:new 0 0 400.5 91.2;" xml:space="preserve">
<style type="text/css">
	.st0{fill:#194276;}
	.st1{fill:#FFFFFF;}
	.st2{fill:#2F4256;}
</style>
<circle class="st0" cx="50.2" cy="45.6" r="34.5"/>
<path class="st1" d="M47.8,57.1c-3,3.2-7.2,5-11.6,5C27,62.1,20,54.8,20,45.6s7-16.5,16.1-16.5c4.4,0,8.6,1.8,11.6,5v-2.4
	c0-1.4,1.1-2.5,2.5-2.5c1.4,0,2.5,1.1,2.5,2.4c0,0,0,0,0,0.1v27.7c0.1,1.4-1,2.5-2.3,2.6c0,0-0.1,0-0.1,0c-1.4,0-2.5-1.1-2.5-2.5
	c0,0,0,0,0,0V57.1z M47.8,46.1v-1c-0.2-6.5-5.2-11.4-11.3-11.4c-6.3,0-11.4,5.2-11.4,11.9s5,11.9,11.4,11.9
	C42.6,57.5,47.5,52.6,47.8,46.1L47.8,46.1z"/>
<path class="st1" d="M49.7,45.6c-0.1-9,7-16.4,16-16.5c0.1,0,0.3,0,0.4,0c4.6-0.1,9.1,1.9,12.1,5.3c0.5,0.5,0.7,1.1,0.8,1.8
	c0,1.3-1,2.3-2.3,2.3c-0.1,0-0.1,0-0.2,0c-0.8-0.1-1.6-0.4-2.1-1.1c-2.1-2.4-5.1-3.8-8.3-3.7c-6.4,0.1-11.5,5.3-11.4,11.6
	c0,0.1,0,0.2,0,0.2C54.5,52,59.6,57.3,66,57.5c0,0,0.1,0,0.1,0c3.2,0,6.2-1.3,8.3-3.7c0.5-0.6,1.3-1,2.1-1.1
	c1.3-0.1,2.4,0.9,2.5,2.2c0,0.1,0,0.1,0,0.2c-0.1,0.6-0.3,1.2-0.7,1.7c-3,3.5-7.5,5.5-12.1,5.4c-9,0.1-16.3-7-16.5-16
	C49.6,45.9,49.6,45.8,49.7,45.6z"/>
<path class="st1" d="M47.8,34.1v-2.4c0-1.4,1.1-2.5,2.5-2.5c1.4,0,2.5,1.1,2.5,2.4c0,0,0,0,0,0.1v27.7c0.1,1.4-1,2.5-2.3,2.6
	c0,0-0.1,0-0.1,0c-1.4,0-2.5-1.1-2.5-2.5c0,0,0,0,0,0V34.1z"/>
<path class="st2" d="M120.4,56.5c-1.8,1.9-4.4,3-7.1,3c-5.5,0-10-4.5-10-10s4.5-10,10-10c2.7,0,5.2,1.1,7.1,3v-1.4
	c0-0.8,0.7-1.5,1.5-1.5c0.8,0,1.5,0.6,1.5,1.5c0,0,0,0,0,0v16.8c0,0.8-0.6,1.5-1.5,1.5c0,0,0,0-0.1,0c-0.8,0-1.5-0.7-1.5-1.5
	c0,0,0,0,0,0V56.5z M120.4,49.8v-0.6c-0.3-3.8-3.7-6.6-7.5-6.3c-3.8,0.3-6.6,3.7-6.3,7.5c0.3,3.6,3.3,6.3,6.9,6.3
	C117.3,56.7,120.3,53.6,120.4,49.8z"/>
<path class="st2" d="M128.5,41.1c0-0.8,0.6-1.5,1.5-1.5c0,0,0,0,0,0c0.8,0,1.5,0.7,1.5,1.5v9.8c0,3.8,2.3,5.9,5.2,5.9s5.3-2,5.3-5.9
	v-9.8c0-0.8,0.7-1.5,1.5-1.5c0,0,0,0,0,0c0.8,0,1.5,0.7,1.5,1.5v9.7c0,5.5-3.7,8.8-8.3,8.8s-8.3-3.3-8.3-8.8L128.5,41.1z"/>
<path class="st2" d="M166.2,56.5c-1.8,1.9-4.4,3-7.1,3c-5.4,0-9.8-4.3-9.8-9.7c0-0.1,0-0.2,0-0.3c-0.1-5.4,4.1-9.9,9.5-10
	c0.1,0,0.2,0,0.3,0c2.7,0,5.2,1.1,7.1,3v-8.6c0-0.8,0.7-1.5,1.5-1.5c0.8,0,1.5,0.6,1.5,1.5c0,0,0,0,0,0v24c0,0.8-0.6,1.5-1.5,1.5
	c0,0,0,0-0.1,0c-0.8,0-1.5-0.7-1.5-1.5c0,0,0,0,0,0V56.5z M166.2,49.8v-0.6c-0.3-3.8-3.7-6.6-7.5-6.3c-3.8,0.3-6.6,3.7-6.3,7.5
	c0.3,3.6,3.3,6.3,6.9,6.3C163.1,56.7,166.1,53.6,166.2,49.8z"/>
<path class="st2" d="M174.4,47.7c0-4.9,3.1-8.2,7.8-8.2c0.8,0,1.4,0.6,1.4,1.4c0,0.8-0.6,1.4-1.4,1.4c-2.8,0-4.8,1.8-4.8,5.4v10.2
	c0,0.8-0.7,1.5-1.5,1.5c0,0,0,0,0,0c-0.8,0-1.5-0.7-1.5-1.5c0,0,0,0,0-0.1L174.4,47.7z"/>
<path class="st2" d="M185.1,49.5c-0.1-5.4,4.3-9.9,9.7-10c0.1,0,0.2,0,0.3,0c2.4,0,4.7,0.8,6.5,2.4c0.7,0.5,0.8,1.5,0.2,2.1
	c0,0.1-0.1,0.1-0.2,0.2l-6.8,8c-0.5,0.6-1.4,0.6-2,0.1c-0.3-0.3-0.5-0.6-0.5-1c0-0.3,0.1-0.7,0.3-0.9l5.9-7c-1-0.8-2.3-1.2-3.6-1.2
	c-4,0.1-7.1,3.5-6.9,7.5c0.1,3.8,3.2,6.8,6.9,6.9c1.9,0,3.7-0.8,5-2.3c0.3-0.4,0.8-0.6,1.3-0.7c0.8,0,1.5,0.6,1.5,1.3
	c0,0,0,0.1,0,0.1c0,0.4-0.2,0.7-0.5,1c-1.8,2.1-4.5,3.3-7.4,3.3c-5.5,0-9.9-4.3-9.9-9.8C185.1,49.6,185.1,49.6,185.1,49.5z"/>
<path class="st2" d="M207.5,57.8V41.1c0-0.8,0.6-1.5,1.5-1.5c0,0,0,0,0.1,0c0.8,0,1.5,0.7,1.5,1.5v13l11.7-14
	c0.3-0.3,0.6-0.5,1.1-0.5c0.8,0,1.4,0.6,1.4,1.4c0,0,0,0,0,0c0,0.3-0.1,0.6-0.3,0.9l-20.3,24.2c-0.2,0.3-0.6,0.5-1.1,0.5
	c-0.8,0-1.4-0.6-1.4-1.3c0-0.3,0.1-0.7,0.3-1L207.5,57.8z"/>
<path class="st2" d="M236.2,49.5c-0.1-5.4,4.3-9.9,9.7-10c0.1,0,0.2,0,0.3,0c2.8,0,5.5,1.1,7.4,3.2c0.3,0.3,0.4,0.7,0.4,1.1
	c0,0.8-0.6,1.4-1.4,1.4c0,0-0.1,0-0.1,0c-0.5,0-1-0.3-1.3-0.7c-1.3-1.4-3.1-2.3-5-2.3c-4,0.1-7.1,3.5-6.9,7.5
	c0.1,3.8,3.2,6.8,6.9,6.9c1.9,0,3.7-0.8,5-2.3c0.3-0.4,0.8-0.6,1.3-0.7c0.8,0,1.4,0.6,1.4,1.4c0,0,0,0,0,0c0,0.4-0.2,0.7-0.4,1
	c-1.8,2.1-4.5,3.3-7.4,3.3c-5.4,0.1-9.9-4.3-9.9-9.8C236.2,49.7,236.2,49.6,236.2,49.5z"/>
<path class="st2" d="M274,56.5c-1.8,1.9-4.4,3-7.1,3c-5.5,0-10-4.5-10-10s4.5-10,10-10c2.7,0,5.2,1.1,7.1,3v-1.4
	c0-0.8,0.7-1.5,1.5-1.5c0.8,0,1.5,0.6,1.5,1.5c0,0,0,0,0,0v16.8c0,0.8-0.6,1.5-1.5,1.5c0,0,0,0-0.1,0c-0.8,0-1.5-0.7-1.5-1.5
	c0,0,0,0,0,0V56.5z M274,49.8v-0.6c-0.1-3.8-3.2-6.8-7-6.7c-3.8,0.1-6.8,3.2-6.7,7c-0.1,3.8,2.9,7,6.7,7
	C270.8,56.6,274,53.6,274,49.8L274,49.8z"/>
<path class="st2" d="M282.2,46.8c0-4.7,3.1-7.3,7-7.3c2.2-0.2,4.3,0.9,5.5,2.8c1.2-1.8,3.3-2.9,5.4-2.8c3.9,0,7,2.6,7,7.3v11.1
	c0,0.8-0.7,1.5-1.5,1.5c0,0,0,0,0,0c-0.8,0.1-1.5-0.6-1.6-1.4c0-0.1,0-0.1,0-0.2V46.8c0-3-1.7-4.5-4-4.5s-3.9,1.5-3.9,4.5v11.1
	c0,0.8-0.7,1.5-1.5,1.5c0,0,0,0,0,0c-0.8,0-1.5-0.7-1.5-1.5c0,0,0,0,0-0.1V46.8c0-3-1.7-4.5-4-4.5s-3.9,1.5-3.9,4.5v11.1
	c0,0.8-0.7,1.5-1.5,1.5c0,0,0,0,0,0c-0.8,0-1.5-0.7-1.5-1.5c0,0,0,0,0-0.1L282.2,46.8z"/>
<path class="st2" d="M311.3,49.5c-0.1-5.4,4.3-9.9,9.7-10c0.1,0,0.2,0,0.3,0c2.4,0,4.7,0.8,6.5,2.4c0.3,0.3,0.6,0.7,0.6,1.2
	c0,0.4-0.2,0.8-0.5,1.1l-6.7,8c-0.5,0.6-1.4,0.6-2,0.1c-0.3-0.3-0.5-0.6-0.5-1c0-0.3,0.1-0.7,0.3-0.9l5.9-7c-1-0.8-2.3-1.2-3.6-1.2
	c-4,0.1-7.1,3.5-6.9,7.5c0.1,3.8,3.2,6.8,6.9,6.9c1.9,0,3.7-0.8,5-2.3c0.3-0.4,0.8-0.6,1.3-0.7c0.8,0,1.5,0.6,1.5,1.3
	c0,0,0,0.1,0,0.1c0,0.4-0.2,0.7-0.5,1c-1.8,2.1-4.5,3.3-7.4,3.3c-5.5,0.1-9.9-4.3-10-9.8C311.3,49.7,311.3,49.6,311.3,49.5z"/>
<path class="st2" d="M333.2,47.7c0-4.9,3.1-8.2,7.8-8.2c0.8,0,1.4,0.6,1.4,1.4c0,0.8-0.6,1.4-1.4,1.4c-2.8,0-4.8,1.8-4.8,5.4v10.2
	c0,0.8-0.7,1.5-1.5,1.5c0,0,0,0,0,0c-0.8,0-1.5-0.7-1.5-1.5c0,0,0,0,0-0.1L333.2,47.7z"/>
<path class="st2" d="M344,49.5c0-5.5,4.5-10,10-10s10,4.5,10,10s-4.5,10-10,10c-5.4,0.1-9.9-4.3-10-9.7C344,49.7,344,49.6,344,49.5z
	 M360.9,49.5c-0.2-3.8-3.4-6.7-7.2-6.6c-3.8,0.2-6.7,3.4-6.6,7.2c0.2,3.7,3.2,6.6,6.9,6.6c3.9-0.1,6.9-3.3,6.9-7.1
	C360.9,49.6,360.9,49.6,360.9,49.5L360.9,49.5z"/>
<path class="st2" d="M368.2,48.2c0-5.5,3.7-8.7,8.3-8.7s8.3,3.2,8.3,8.7v9.7c0,0.8-0.7,1.5-1.5,1.5c0,0,0,0,0,0
	c-0.8,0-1.5-0.7-1.5-1.5c0,0,0,0,0-0.1v-9.8c0-3.8-2.3-5.8-5.3-5.8s-5.2,2-5.2,5.8v9.8c0,0.8-0.7,1.5-1.5,1.5c0,0,0,0,0,0
	c-0.8,0-1.5-0.7-1.5-1.5c0,0,0,0,0-0.1L368.2,48.2z"/>
</svg>
